<svg width="84" height="80" viewBox="0 0 84 80" fill="none" xmlns="http://www.w3.org/2000/svg">
<path fill-rule="evenodd" clip-rule="evenodd" d="M39.7066 32.253L25.9742 1.89724L30.1301 0L42.2362 26.6968L54.7941 0.0903499L58.9951 1.98757L44.8562 32.2078C43.8624 34.4212 40.7004 34.4664 39.7066 32.253Z" fill="#F41A94"/>
<path fill-rule="evenodd" clip-rule="evenodd" d="M50.2312 40.7903L82.2583 31.8462L83.6134 36.2731L55.2905 44.0879L73.269 56.2844L70.7394 60.124L49.4181 45.8044C47.4305 44.5396 47.8822 41.4679 50.2312 40.7903Z" fill="#F41A94"/>
<path fill-rule="evenodd" clip-rule="evenodd" d="M33.834 40.8355L1.21966 31.5752L0 35.9569L28.7747 44.1331L10.5251 56.4651L13.0548 60.3047L34.5567 45.8496C36.5895 44.5848 36.1378 41.4679 33.834 40.8355Z" fill="#F41A94"/>
<path fill-rule="evenodd" clip-rule="evenodd" d="M33.2465 37.4475L2.21326 28.7745L3.43288 24.3928L30.6266 31.9817L18.3397 5.28493L22.4504 3.3877L36.4538 33.5176C37.5831 35.6858 35.5955 38.08 33.2465 37.4475Z" fill="#F41A94"/>
<path fill-rule="evenodd" clip-rule="evenodd" d="M50.8189 37.3572L81.3553 28.639L80.0453 24.3476L53.4388 31.8914L65.7709 5.10426L61.5698 3.20703L47.5665 33.4272C46.4823 35.5503 48.4699 37.9896 50.8189 37.3572Z" fill="#F41A94"/>
<path d="M20.282 72.8174L22.2244 77.967L24.1216 72.8174H25.6574L22.8568 79.8642H21.5919L18.7461 72.8174H20.282Z" fill="#F41A94"/>
<path d="M27.691 72.8174H26.2906V79.8642H27.691V72.8174Z" fill="#F41A94"/>
<path d="M32.8404 75.2115C32.8404 74.8953 32.7501 74.6243 32.5694 74.4436C32.3887 74.2629 32.1177 74.1725 31.7563 74.1725H30.4011V76.2053H31.7563C32.1177 76.2053 32.3887 76.115 32.5694 75.9343C32.7501 75.7536 32.8404 75.5277 32.8404 75.2115ZM34.3311 75.1663C34.3311 75.8891 34.1052 76.4763 33.6535 76.8829C33.2018 77.2894 32.6146 77.5153 31.8918 77.5153H30.4011V79.8642H29.0008V72.8174H31.8918C32.6146 72.8174 33.2018 73.0432 33.6535 73.4498C34.1052 73.9015 34.3311 74.4436 34.3311 75.1663Z" fill="#F41A94"/>
<path d="M35.0086 77.7866H36.4089C36.4089 78.0576 36.5445 78.2835 36.7703 78.4642C36.9962 78.6449 37.2672 78.69 37.6286 78.69C37.99 78.69 38.2158 78.5997 38.4417 78.4642C38.6224 78.3287 38.7127 78.1028 38.7127 77.8318C38.7127 77.6962 38.7127 77.6059 38.6675 77.5156C38.6224 77.4252 38.5772 77.3349 38.4869 77.2897C38.3965 77.2445 38.3062 77.1993 38.261 77.1542C38.1707 77.109 38.0803 77.109 37.9448 77.0638L36.9058 76.8832C35.641 76.6573 35.0538 76.0249 35.0538 74.9407C35.0538 74.2632 35.2796 73.7211 35.7314 73.3145C36.1831 72.908 36.8155 72.6821 37.5834 72.6821C38.3062 72.6821 38.8934 72.8628 39.3903 73.2694C39.842 73.6759 40.0679 74.1728 40.1131 74.8504H38.6224C38.6224 74.5794 38.4869 74.3535 38.3062 74.1728C38.1255 73.9921 37.8545 73.9018 37.4931 73.9018C37.1769 73.9018 36.951 73.9921 36.7703 74.1276C36.5896 74.2632 36.4993 74.4438 36.4993 74.7149C36.4993 74.9407 36.5896 75.1214 36.7251 75.2118C36.8607 75.3473 37.0865 75.3925 37.3576 75.4376L38.3965 75.6183C38.9838 75.7087 39.4355 75.9797 39.7517 76.2959C40.0679 76.6573 40.2034 77.109 40.2034 77.6511C40.2034 78.3287 39.9776 78.8707 39.4807 79.2773C39.0289 79.6838 38.3965 79.9097 37.6286 79.9097C36.8607 79.9097 36.2734 79.729 35.7765 79.3225C35.2796 78.9159 35.0538 78.419 35.0086 77.7866Z" fill="#F41A94"/>
<path d="M45.7598 74.1274H43.9077V79.8642H42.5074V74.1274H40.6102V72.8174H45.7598V74.1274Z" fill="#F41A94"/>
<path d="M46.5726 72.8174H47.973V77.1991C47.973 77.6508 48.1085 77.967 48.3344 78.238C48.5602 78.4639 48.8764 78.5994 49.283 78.5994C49.6895 78.5994 50.0057 78.4639 50.2316 78.238C50.4575 78.0122 50.5478 77.6508 50.5478 77.2443V72.8625H51.9481V77.3346C51.9481 78.1477 51.7223 78.8253 51.2254 79.277C50.7737 79.7739 50.0961 79.9998 49.283 79.9998C48.4699 79.9998 47.7923 79.7739 47.3406 79.277C46.8437 78.7801 46.6178 78.1477 46.6178 77.3346V72.8174H46.5726Z" fill="#F41A94"/>
<path d="M55.6976 78.5542C56.33 78.5542 56.8269 78.3736 57.1431 77.967C57.4593 77.6056 57.64 77.0636 57.64 76.3408C57.64 75.6181 57.4593 75.076 57.1431 74.7146C56.7817 74.3532 56.33 74.1725 55.7428 74.1725H54.6135V78.5542H55.6976ZM53.168 72.8174H55.788C56.8269 72.8174 57.64 73.1336 58.2273 73.766C58.8145 74.3984 59.0855 75.2567 59.0855 76.3408C59.0855 77.4701 58.8145 78.3284 58.2273 78.9156C57.64 79.548 56.8269 79.8191 55.788 79.8191H53.168V72.8174Z" fill="#F41A94"/>
<path d="M60.4857 72.8174L62.1119 75.6181L63.6929 72.8174H65.2739L62.7895 76.928V79.8642H61.3891V76.928L58.9047 72.8174H60.4857Z" fill="#F41A94"/>
<path fill-rule="evenodd" clip-rule="evenodd" d="M39.7066 32.253L25.9742 1.89724L30.1301 0L42.2362 26.6968L54.7941 0.0903499L58.9951 1.98757L44.8562 32.2078C43.8624 34.4212 40.7004 34.4664 39.7066 32.253Z" fill="#F41A94"/>
<path fill-rule="evenodd" clip-rule="evenodd" d="M50.2312 40.7903L82.2583 31.8462L83.6134 36.2731L55.2905 44.0879L73.269 56.2844L70.7394 60.124L49.4181 45.8044C47.4305 44.5396 47.8822 41.4679 50.2312 40.7903Z" fill="#F41A94"/>
<path fill-rule="evenodd" clip-rule="evenodd" d="M33.834 40.8355L1.21966 31.5752L0 35.9569L28.7747 44.1331L10.5251 56.4651L13.0548 60.3047L34.5567 45.8496C36.5895 44.5848 36.1378 41.4679 33.834 40.8355Z" fill="#F41A94"/>
<path fill-rule="evenodd" clip-rule="evenodd" d="M33.2465 37.4475L2.21326 28.7745L3.43288 24.3928L30.6266 31.9817L18.3397 5.28493L22.4504 3.3877L36.4538 33.5176C37.5831 35.6858 35.5955 38.08 33.2465 37.4475Z" fill="#F41A94"/>
<path fill-rule="evenodd" clip-rule="evenodd" d="M50.8189 37.3572L81.3553 28.639L80.0453 24.3476L53.4388 31.8914L65.7709 5.10426L61.5698 3.20703L47.5665 33.4272C46.4823 35.5503 48.4699 37.9896 50.8189 37.3572Z" fill="#F41A94"/>
<path d="M20.282 72.8174L22.2244 77.967L24.1216 72.8174H25.6574L22.8568 79.8642H21.5919L18.7461 72.8174H20.282Z" fill="#F41A94"/>
<path d="M27.691 72.8174H26.2906V79.8642H27.691V72.8174Z" fill="#F41A94"/>
<path d="M32.8404 75.2115C32.8404 74.8953 32.7501 74.6243 32.5694 74.4436C32.3887 74.2629 32.1177 74.1725 31.7563 74.1725H30.4011V76.2053H31.7563C32.1177 76.2053 32.3887 76.115 32.5694 75.9343C32.7501 75.7536 32.8404 75.5277 32.8404 75.2115ZM34.3311 75.1663C34.3311 75.8891 34.1052 76.4763 33.6535 76.8829C33.2018 77.2894 32.6146 77.5153 31.8918 77.5153H30.4011V79.8642H29.0008V72.8174H31.8918C32.6146 72.8174 33.2018 73.0432 33.6535 73.4498C34.1052 73.9015 34.3311 74.4436 34.3311 75.1663Z" fill="#F41A94"/>
<path d="M35.0086 77.7866H36.4089C36.4089 78.0576 36.5445 78.2835 36.7703 78.4642C36.9962 78.6449 37.2672 78.69 37.6286 78.69C37.99 78.69 38.2158 78.5997 38.4417 78.4642C38.6224 78.3287 38.7127 78.1028 38.7127 77.8318C38.7127 77.6962 38.7127 77.6059 38.6675 77.5156C38.6224 77.4252 38.5772 77.3349 38.4869 77.2897C38.3965 77.2445 38.3062 77.1993 38.261 77.1542C38.1707 77.109 38.0803 77.109 37.9448 77.0638L36.9058 76.8832C35.641 76.6573 35.0538 76.0249 35.0538 74.9407C35.0538 74.2632 35.2796 73.7211 35.7314 73.3145C36.1831 72.908 36.8155 72.6821 37.5834 72.6821C38.3062 72.6821 38.8934 72.8628 39.3903 73.2694C39.842 73.6759 40.0679 74.1728 40.1131 74.8504H38.6224C38.6224 74.5794 38.4869 74.3535 38.3062 74.1728C38.1255 73.9921 37.8545 73.9018 37.4931 73.9018C37.1769 73.9018 36.951 73.9921 36.7703 74.1276C36.5896 74.2632 36.4993 74.4438 36.4993 74.7149C36.4993 74.9407 36.5896 75.1214 36.7251 75.2118C36.8607 75.3473 37.0865 75.3925 37.3576 75.4376L38.3965 75.6183C38.9838 75.7087 39.4355 75.9797 39.7517 76.2959C40.0679 76.6573 40.2034 77.109 40.2034 77.6511C40.2034 78.3287 39.9776 78.8707 39.4807 79.2773C39.0289 79.6838 38.3965 79.9097 37.6286 79.9097C36.8607 79.9097 36.2734 79.729 35.7765 79.3225C35.2796 78.9159 35.0538 78.419 35.0086 77.7866Z" fill="#F41A94"/>
<path d="M45.7598 74.1274H43.9077V79.8642H42.5074V74.1274H40.6102V72.8174H45.7598V74.1274Z" fill="#F41A94"/>
<path d="M46.5726 72.8174H47.973V77.1991C47.973 77.6508 48.1085 77.967 48.3344 78.238C48.5602 78.4639 48.8764 78.5994 49.283 78.5994C49.6895 78.5994 50.0057 78.4639 50.2316 78.238C50.4575 78.0122 50.5478 77.6508 50.5478 77.2443V72.8625H51.9481V77.3346C51.9481 78.1477 51.7223 78.8253 51.2254 79.277C50.7737 79.7739 50.0961 79.9998 49.283 79.9998C48.4699 79.9998 47.7923 79.7739 47.3406 79.277C46.8437 78.7801 46.6178 78.1477 46.6178 77.3346V72.8174H46.5726Z" fill="#F41A94"/>
<path d="M55.6976 78.5542C56.33 78.5542 56.8269 78.3736 57.1431 77.967C57.4593 77.6056 57.64 77.0636 57.64 76.3408C57.64 75.6181 57.4593 75.076 57.1431 74.7146C56.7817 74.3532 56.33 74.1725 55.7428 74.1725H54.6135V78.5542H55.6976ZM53.168 72.8174H55.788C56.8269 72.8174 57.64 73.1336 58.2273 73.766C58.8145 74.3984 59.0855 75.2567 59.0855 76.3408C59.0855 77.4701 58.8145 78.3284 58.2273 78.9156C57.64 79.548 56.8269 79.8191 55.788 79.8191H53.168V72.8174Z" fill="#F41A94"/>
<path d="M60.4857 72.8174L62.1119 75.6181L63.6929 72.8174H65.2739L62.7895 76.928V79.8642H61.3891V76.928L58.9047 72.8174H60.4857Z" fill="#F41A94"/>
<path fill-rule="evenodd" clip-rule="evenodd" d="M39.7066 32.253L25.9742 1.89724L30.1301 0L42.2362 26.6968L54.7941 0.0903499L58.9951 1.98757L44.8562 32.2078C43.8624 34.4212 40.7004 34.4664 39.7066 32.253Z" fill="#F41A94"/>
<path fill-rule="evenodd" clip-rule="evenodd" d="M50.2312 40.7903L82.2583 31.8462L83.6134 36.2731L55.2905 44.0879L73.269 56.2844L70.7394 60.124L49.4181 45.8044C47.4305 44.5396 47.8822 41.4679 50.2312 40.7903Z" fill="#F41A94"/>
<path fill-rule="evenodd" clip-rule="evenodd" d="M33.834 40.8355L1.21966 31.5752L0 35.9569L28.7747 44.1331L10.5251 56.4651L13.0548 60.3047L34.5567 45.8496C36.5895 44.5848 36.1378 41.4679 33.834 40.8355Z" fill="#F41A94"/>
<path fill-rule="evenodd" clip-rule="evenodd" d="M33.2465 37.4475L2.21326 28.7745L3.43288 24.3928L30.6266 31.9817L18.3397 5.28493L22.4504 3.3877L36.4538 33.5176C37.5831 35.6858 35.5955 38.08 33.2465 37.4475Z" fill="#F41A94"/>
<path fill-rule="evenodd" clip-rule="evenodd" d="M50.8189 37.3572L81.3553 28.639L80.0453 24.3476L53.4388 31.8914L65.7709 5.10426L61.5698 3.20703L47.5665 33.4272C46.4823 35.5503 48.4699 37.9896 50.8189 37.3572Z" fill="#F41A94"/>
<path d="M20.282 72.8174L22.2244 77.967L24.1216 72.8174H25.6574L22.8568 79.8642H21.5919L18.7461 72.8174H20.282Z" fill="#F41A94"/>
<path d="M27.691 72.8174H26.2906V79.8642H27.691V72.8174Z" fill="#F41A94"/>
<path d="M32.8404 75.2115C32.8404 74.8953 32.7501 74.6243 32.5694 74.4436C32.3887 74.2629 32.1177 74.1725 31.7563 74.1725H30.4011V76.2053H31.7563C32.1177 76.2053 32.3887 76.115 32.5694 75.9343C32.7501 75.7536 32.8404 75.5277 32.8404 75.2115ZM34.3311 75.1663C34.3311 75.8891 34.1052 76.4763 33.6535 76.8829C33.2018 77.2894 32.6146 77.5153 31.8918 77.5153H30.4011V79.8642H29.0008V72.8174H31.8918C32.6146 72.8174 33.2018 73.0432 33.6535 73.4498C34.1052 73.9015 34.3311 74.4436 34.3311 75.1663Z" fill="#F41A94"/>
<path d="M35.0086 77.7866H36.4089C36.4089 78.0576 36.5445 78.2835 36.7703 78.4642C36.9962 78.6449 37.2672 78.69 37.6286 78.69C37.99 78.69 38.2158 78.5997 38.4417 78.4642C38.6224 78.3287 38.7127 78.1028 38.7127 77.8318C38.7127 77.6962 38.7127 77.6059 38.6675 77.5156C38.6224 77.4252 38.5772 77.3349 38.4869 77.2897C38.3965 77.2445 38.3062 77.1993 38.261 77.1542C38.1707 77.109 38.0803 77.109 37.9448 77.0638L36.9058 76.8832C35.641 76.6573 35.0538 76.0249 35.0538 74.9407C35.0538 74.2632 35.2796 73.7211 35.7314 73.3145C36.1831 72.908 36.8155 72.6821 37.5834 72.6821C38.3062 72.6821 38.8934 72.8628 39.3903 73.2694C39.842 73.6759 40.0679 74.1728 40.1131 74.8504H38.6224C38.6224 74.5794 38.4869 74.3535 38.3062 74.1728C38.1255 73.9921 37.8545 73.9018 37.4931 73.9018C37.1769 73.9018 36.951 73.9921 36.7703 74.1276C36.5896 74.2632 36.4993 74.4438 36.4993 74.7149C36.4993 74.9407 36.5896 75.1214 36.7251 75.2118C36.8607 75.3473 37.0865 75.3925 37.3576 75.4376L38.3965 75.6183C38.9838 75.7087 39.4355 75.9797 39.7517 76.2959C40.0679 76.6573 40.2034 77.109 40.2034 77.6511C40.2034 78.3287 39.9776 78.8707 39.4807 79.2773C39.0289 79.6838 38.3965 79.9097 37.6286 79.9097C36.8607 79.9097 36.2734 79.729 35.7765 79.3225C35.2796 78.9159 35.0538 78.419 35.0086 77.7866Z" fill="#F41A94"/>
<path d="M45.7598 74.1274H43.9077V79.8642H42.5074V74.1274H40.6102V72.8174H45.7598V74.1274Z" fill="#F41A94"/>
<path d="M46.5726 72.8174H47.973V77.1991C47.973 77.6508 48.1085 77.967 48.3344 78.238C48.5602 78.4639 48.8764 78.5994 49.283 78.5994C49.6895 78.5994 50.0057 78.4639 50.2316 78.238C50.4575 78.0122 50.5478 77.6508 50.5478 77.2443V72.8625H51.9481V77.3346C51.9481 78.1477 51.7223 78.8253 51.2254 79.277C50.7737 79.7739 50.0961 79.9998 49.283 79.9998C48.4699 79.9998 47.7923 79.7739 47.3406 79.277C46.8437 78.7801 46.6178 78.1477 46.6178 77.3346V72.8174H46.5726Z" fill="#F41A94"/>
<path d="M55.6976 78.5542C56.33 78.5542 56.8269 78.3736 57.1431 77.967C57.4593 77.6056 57.64 77.0636 57.64 76.3408C57.64 75.6181 57.4593 75.076 57.1431 74.7146C56.7817 74.3532 56.33 74.1725 55.7428 74.1725H54.6135V78.5542H55.6976ZM53.168 72.8174H55.788C56.8269 72.8174 57.64 73.1336 58.2273 73.766C58.8145 74.3984 59.0855 75.2567 59.0855 76.3408C59.0855 77.4701 58.8145 78.3284 58.2273 78.9156C57.64 79.548 56.8269 79.8191 55.788 79.8191H53.168V72.8174Z" fill="#F41A94"/>
<path d="M60.4857 72.8174L62.1119 75.6181L63.6929 72.8174H65.2739L62.7895 76.928V79.8642H61.3891V76.928L58.9047 72.8174H60.4857Z" fill="#F41A94"/>
<path fill-rule="evenodd" clip-rule="evenodd" d="M39.7066 32.253L25.9742 1.89724L30.1301 0L42.2362 26.6968L54.7941 0.0903499L58.9951 1.98757L44.8562 32.2078C43.8624 34.4212 40.7004 34.4664 39.7066 32.253Z" fill="#F41A94"/>
<path fill-rule="evenodd" clip-rule="evenodd" d="M50.2312 40.7903L82.2583 31.8462L83.6134 36.2731L55.2905 44.0879L73.269 56.2844L70.7394 60.124L49.4181 45.8044C47.4305 44.5396 47.8822 41.4679 50.2312 40.7903Z" fill="#F41A94"/>
<path fill-rule="evenodd" clip-rule="evenodd" d="M33.834 40.8355L1.21966 31.5752L0 35.9569L28.7747 44.1331L10.5251 56.4651L13.0548 60.3047L34.5567 45.8496C36.5895 44.5848 36.1378 41.4679 33.834 40.8355Z" fill="#F41A94"/>
<path fill-rule="evenodd" clip-rule="evenodd" d="M33.2465 37.4475L2.21326 28.7745L3.43288 24.3928L30.6266 31.9817L18.3397 5.28493L22.4504 3.3877L36.4538 33.5176C37.5831 35.6858 35.5955 38.08 33.2465 37.4475Z" fill="#F41A94"/>
<path fill-rule="evenodd" clip-rule="evenodd" d="M50.8189 37.3572L81.3553 28.639L80.0453 24.3476L53.4388 31.8914L65.7709 5.10426L61.5698 3.20703L47.5665 33.4272C46.4823 35.5503 48.4699 37.9896 50.8189 37.3572Z" fill="#F41A94"/>
<path d="M20.282 72.8174L22.2244 77.967L24.1216 72.8174H25.6574L22.8568 79.8642H21.5919L18.7461 72.8174H20.282Z" fill="#F41A94"/>
<path d="M27.691 72.8174H26.2906V79.8642H27.691V72.8174Z" fill="#F41A94"/>
<path d="M32.8404 75.2115C32.8404 74.8953 32.7501 74.6243 32.5694 74.4436C32.3887 74.2629 32.1177 74.1725 31.7563 74.1725H30.4011V76.2053H31.7563C32.1177 76.2053 32.3887 76.115 32.5694 75.9343C32.7501 75.7536 32.8404 75.5277 32.8404 75.2115ZM34.3311 75.1663C34.3311 75.8891 34.1052 76.4763 33.6535 76.8829C33.2018 77.2894 32.6146 77.5153 31.8918 77.5153H30.4011V79.8642H29.0008V72.8174H31.8918C32.6146 72.8174 33.2018 73.0432 33.6535 73.4498C34.1052 73.9015 34.3311 74.4436 34.3311 75.1663Z" fill="#F41A94"/>
<path d="M35.0086 77.7866H36.4089C36.4089 78.0576 36.5445 78.2835 36.7703 78.4642C36.9962 78.6449 37.2672 78.69 37.6286 78.69C37.99 78.69 38.2158 78.5997 38.4417 78.4642C38.6224 78.3287 38.7127 78.1028 38.7127 77.8318C38.7127 77.6962 38.7127 77.6059 38.6675 77.5156C38.6224 77.4252 38.5772 77.3349 38.4869 77.2897C38.3965 77.2445 38.3062 77.1993 38.261 77.1542C38.1707 77.109 38.0803 77.109 37.9448 77.0638L36.9058 76.8832C35.641 76.6573 35.0538 76.0249 35.0538 74.9407C35.0538 74.2632 35.2796 73.7211 35.7314 73.3145C36.1831 72.908 36.8155 72.6821 37.5834 72.6821C38.3062 72.6821 38.8934 72.8628 39.3903 73.2694C39.842 73.6759 40.0679 74.1728 40.1131 74.8504H38.6224C38.6224 74.5794 38.4869 74.3535 38.3062 74.1728C38.1255 73.9921 37.8545 73.9018 37.4931 73.9018C37.1769 73.9018 36.951 73.9921 36.7703 74.1276C36.5896 74.2632 36.4993 74.4438 36.4993 74.7149C36.4993 74.9407 36.5896 75.1214 36.7251 75.2118C36.8607 75.3473 37.0865 75.3925 37.3576 75.4376L38.3965 75.6183C38.9838 75.7087 39.4355 75.9797 39.7517 76.2959C40.0679 76.6573 40.2034 77.109 40.2034 77.6511C40.2034 78.3287 39.9776 78.8707 39.4807 79.2773C39.0289 79.6838 38.3965 79.9097 37.6286 79.9097C36.8607 79.9097 36.2734 79.729 35.7765 79.3225C35.2796 78.9159 35.0538 78.419 35.0086 77.7866Z" fill="#F41A94"/>
<path d="M45.7598 74.1274H43.9077V79.8642H42.5074V74.1274H40.6102V72.8174H45.7598V74.1274Z" fill="#F41A94"/>
<path d="M46.5726 72.8174H47.973V77.1991C47.973 77.6508 48.1085 77.967 48.3344 78.238C48.5602 78.4639 48.8764 78.5994 49.283 78.5994C49.6895 78.5994 50.0057 78.4639 50.2316 78.238C50.4575 78.0122 50.5478 77.6508 50.5478 77.2443V72.8625H51.9481V77.3346C51.9481 78.1477 51.7223 78.8253 51.2254 79.277C50.7737 79.7739 50.0961 79.9998 49.283 79.9998C48.4699 79.9998 47.7923 79.7739 47.3406 79.277C46.8437 78.7801 46.6178 78.1477 46.6178 77.3346V72.8174H46.5726Z" fill="#F41A94"/>
<path d="M55.6976 78.5542C56.33 78.5542 56.8269 78.3736 57.1431 77.967C57.4593 77.6056 57.64 77.0636 57.64 76.3408C57.64 75.6181 57.4593 75.076 57.1431 74.7146C56.7817 74.3532 56.33 74.1725 55.7428 74.1725H54.6135V78.5542H55.6976ZM53.168 72.8174H55.788C56.8269 72.8174 57.64 73.1336 58.2273 73.766C58.8145 74.3984 59.0855 75.2567 59.0855 76.3408C59.0855 77.4701 58.8145 78.3284 58.2273 78.9156C57.64 79.548 56.8269 79.8191 55.788 79.8191H53.168V72.8174Z" fill="#F41A94"/>
<path d="M60.4857 72.8174L62.1119 75.6181L63.6929 72.8174H65.2739L62.7895 76.928V79.8642H61.3891V76.928L58.9047 72.8174H60.4857Z" fill="#F41A94"/>
</svg>
